<mxfile host="app.diagrams.net" modified="2024-04-18T23:10:58.525Z" agent="Mozilla/5.0 (Windows NT 10.0; Win64; x64) AppleWebKit/537.36 (KHTML, like Gecko) Chrome/123.0.0.0 Safari/537.36" etag="TQSNAt8Op5sjfHTYE6fA" version="23.1.6" type="github">
  <diagram name="Page-1" id="JasE5VV2Gxo0_H-xrVMb">
    <mxGraphModel dx="2284" dy="746" grid="1" gridSize="10" guides="1" tooltips="1" connect="1" arrows="1" fold="1" page="1" pageScale="1" pageWidth="850" pageHeight="1100" math="0" shadow="0">
      <root>
        <mxCell id="0" />
        <mxCell id="1" parent="0" />
        <mxCell id="E3U97gk_HZ8-_eNEPnec-61" style="edgeStyle=orthogonalEdgeStyle;rounded=0;orthogonalLoop=1;jettySize=auto;html=1;exitX=0.5;exitY=1;exitDx=0;exitDy=0;entryX=0.5;entryY=0;entryDx=0;entryDy=0;" edge="1" parent="1" source="E3U97gk_HZ8-_eNEPnec-8" target="E3U97gk_HZ8-_eNEPnec-16">
          <mxGeometry relative="1" as="geometry" />
        </mxCell>
        <mxCell id="E3U97gk_HZ8-_eNEPnec-8" value="Login (WebSite)" style="swimlane;fontStyle=0;childLayout=stackLayout;horizontal=1;startSize=30;horizontalStack=0;resizeParent=1;resizeParentMax=0;resizeLast=0;collapsible=1;marginBottom=0;whiteSpace=wrap;html=1;" vertex="1" collapsed="1" parent="1">
          <mxGeometry x="-490" y="80" width="130" height="30" as="geometry">
            <mxRectangle x="-230" y="110" width="140" height="60" as="alternateBounds" />
          </mxGeometry>
        </mxCell>
        <mxCell id="E3U97gk_HZ8-_eNEPnec-16" value="POST (BackEnd)&#x9;&lt;span style=&quot;border-color: var(--border-color);&quot;&gt;&lt;span style=&quot;white-space: pre;&quot;&gt;&lt;br&gt;&lt;/span&gt;&lt;/span&gt;" style="swimlane;fontStyle=0;childLayout=stackLayout;horizontal=1;startSize=40;horizontalStack=0;resizeParent=1;resizeParentMax=0;resizeLast=0;collapsible=1;marginBottom=0;whiteSpace=wrap;html=1;" vertex="1" parent="1">
          <mxGeometry x="-495" y="130" width="140" height="250" as="geometry" />
        </mxCell>
        <mxCell id="E3U97gk_HZ8-_eNEPnec-17" value="&lt;a style=&quot;box-sizing: border-box; background-color: transparent; display: inline; color: inherit; cursor: pointer; text-decoration: inherit;&quot; class=&quot;nostyle&quot;&gt;&lt;div&gt;&lt;/div&gt;&lt;span style=&quot;box-sizing: border-box;&quot;&gt;/oauth2&lt;wbr style=&quot;box-sizing: border-box;&quot;&gt;/google&lt;wbr style=&quot;box-sizing: border-box;&quot;&gt;/login&lt;/span&gt;&lt;/a&gt;&lt;span style=&quot;box-sizing: border-box; align-items: center; color: rgb(59, 65, 81); display: flex; font-family: monospace; font-size: 16px; font-weight: 600; word-break: break-word; flex-shrink: 1; background-color: rgba(97, 175, 254, 0.1);&quot; data-path=&quot;/oauth2/google/login&quot; class=&quot;opblock-summary-path&quot;&gt;&lt;/span&gt;" style="text;strokeColor=none;fillColor=none;align=left;verticalAlign=middle;spacingLeft=4;spacingRight=4;overflow=hidden;points=[[0,0.5],[1,0.5]];portConstraint=eastwest;rotatable=0;whiteSpace=wrap;html=1;" vertex="1" parent="E3U97gk_HZ8-_eNEPnec-16">
          <mxGeometry y="40" width="140" height="210" as="geometry" />
        </mxCell>
        <mxCell id="E3U97gk_HZ8-_eNEPnec-26" value="Discover IdP&lt;span style=&quot;border-color: var(--border-color);&quot;&gt;&lt;span style=&quot;&quot;&gt;&lt;br&gt;&lt;/span&gt;&lt;/span&gt;" style="swimlane;fontStyle=0;childLayout=stackLayout;horizontal=1;startSize=30;horizontalStack=0;resizeParent=1;resizeParentMax=0;resizeLast=0;collapsible=1;marginBottom=0;whiteSpace=wrap;html=1;" vertex="1" parent="1">
          <mxGeometry x="20" y="170" width="260" height="60" as="geometry" />
        </mxCell>
        <mxCell id="E3U97gk_HZ8-_eNEPnec-27" value=".well-known/openid-configuration" style="text;strokeColor=none;fillColor=none;align=left;verticalAlign=middle;spacingLeft=4;spacingRight=4;overflow=hidden;points=[[0,0.5],[1,0.5]];portConstraint=eastwest;rotatable=0;whiteSpace=wrap;html=1;" vertex="1" parent="E3U97gk_HZ8-_eNEPnec-26">
          <mxGeometry y="30" width="260" height="30" as="geometry" />
        </mxCell>
        <mxCell id="E3U97gk_HZ8-_eNEPnec-30" value="Response: .JSON(Metadados: Auth Endpoint and Token Endpoint)" style="text;html=1;align=center;verticalAlign=middle;whiteSpace=wrap;rounded=0;" vertex="1" parent="1">
          <mxGeometry x="-370" y="210" width="400" height="30" as="geometry" />
        </mxCell>
        <mxCell id="E3U97gk_HZ8-_eNEPnec-32" style="edgeStyle=orthogonalEdgeStyle;rounded=0;orthogonalLoop=1;jettySize=auto;html=1;entryX=0;entryY=0.25;entryDx=0;entryDy=0;exitX=0.993;exitY=0.071;exitDx=0;exitDy=0;exitPerimeter=0;" edge="1" parent="1" source="E3U97gk_HZ8-_eNEPnec-17" target="E3U97gk_HZ8-_eNEPnec-26">
          <mxGeometry relative="1" as="geometry">
            <mxPoint x="-330" y="230" as="sourcePoint" />
          </mxGeometry>
        </mxCell>
        <mxCell id="E3U97gk_HZ8-_eNEPnec-33" style="edgeStyle=orthogonalEdgeStyle;rounded=0;orthogonalLoop=1;jettySize=auto;html=1;exitX=0;exitY=0.5;exitDx=0;exitDy=0;entryX=0.986;entryY=0.21;entryDx=0;entryDy=0;entryPerimeter=0;" edge="1" parent="1" source="E3U97gk_HZ8-_eNEPnec-27" target="E3U97gk_HZ8-_eNEPnec-17">
          <mxGeometry relative="1" as="geometry" />
        </mxCell>
        <mxCell id="E3U97gk_HZ8-_eNEPnec-34" value="Start Authentication&lt;span style=&quot;border-color: var(--border-color);&quot;&gt;&lt;span style=&quot;&quot;&gt;&lt;br&gt;&lt;/span&gt;&lt;/span&gt;" style="swimlane;fontStyle=0;childLayout=stackLayout;horizontal=1;startSize=30;horizontalStack=0;resizeParent=1;resizeParentMax=0;resizeLast=0;collapsible=1;marginBottom=0;whiteSpace=wrap;html=1;" vertex="1" parent="1">
          <mxGeometry x="20" y="260" width="260" height="130" as="geometry" />
        </mxCell>
        <mxCell id="E3U97gk_HZ8-_eNEPnec-35" value="Auth Endpoint:&lt;br&gt;-client_id&lt;br&gt;-redirect_uri&lt;br&gt;-response_type&lt;br&gt;-scope&lt;br&gt;-state?" style="text;strokeColor=none;fillColor=none;align=left;verticalAlign=middle;spacingLeft=4;spacingRight=4;overflow=hidden;points=[[0,0.5],[1,0.5]];portConstraint=eastwest;rotatable=0;whiteSpace=wrap;html=1;" vertex="1" parent="E3U97gk_HZ8-_eNEPnec-34">
          <mxGeometry y="30" width="260" height="100" as="geometry" />
        </mxCell>
        <mxCell id="E3U97gk_HZ8-_eNEPnec-38" style="edgeStyle=orthogonalEdgeStyle;rounded=0;orthogonalLoop=1;jettySize=auto;html=1;exitX=0.993;exitY=0.657;exitDx=0;exitDy=0;exitPerimeter=0;" edge="1" parent="1" source="E3U97gk_HZ8-_eNEPnec-17">
          <mxGeometry relative="1" as="geometry">
            <mxPoint x="30" y="350" as="sourcePoint" />
            <mxPoint x="20" y="308" as="targetPoint" />
          </mxGeometry>
        </mxCell>
        <mxCell id="E3U97gk_HZ8-_eNEPnec-39" value="Redirect" style="text;html=1;align=center;verticalAlign=middle;whiteSpace=wrap;rounded=0;" vertex="1" parent="1">
          <mxGeometry x="-200" y="280" width="60" height="30" as="geometry" />
        </mxCell>
        <mxCell id="E3U97gk_HZ8-_eNEPnec-42" value="Login(Provider Page)&lt;span style=&quot;border-color: var(--border-color);&quot;&gt;&lt;span style=&quot;white-space: pre;&quot;&gt;&lt;br&gt;&lt;/span&gt;&lt;/span&gt;" style="swimlane;fontStyle=0;childLayout=stackLayout;horizontal=1;startSize=30;horizontalStack=0;resizeParent=1;resizeParentMax=0;resizeLast=0;collapsible=1;marginBottom=0;whiteSpace=wrap;html=1;" vertex="1" parent="1">
          <mxGeometry x="330" y="280" width="170" height="70" as="geometry" />
        </mxCell>
        <mxCell id="E3U97gk_HZ8-_eNEPnec-43" value="-Username&lt;br&gt;-Password" style="text;strokeColor=none;fillColor=none;align=left;verticalAlign=middle;spacingLeft=4;spacingRight=4;overflow=hidden;points=[[0,0.5],[1,0.5]];portConstraint=eastwest;rotatable=0;whiteSpace=wrap;html=1;" vertex="1" parent="E3U97gk_HZ8-_eNEPnec-42">
          <mxGeometry y="30" width="170" height="40" as="geometry" />
        </mxCell>
        <mxCell id="E3U97gk_HZ8-_eNEPnec-45" style="edgeStyle=orthogonalEdgeStyle;rounded=0;orthogonalLoop=1;jettySize=auto;html=1;exitX=0;exitY=0.5;exitDx=0;exitDy=0;entryX=1.008;entryY=0.4;entryDx=0;entryDy=0;entryPerimeter=0;" edge="1" parent="1" source="E3U97gk_HZ8-_eNEPnec-43" target="E3U97gk_HZ8-_eNEPnec-35">
          <mxGeometry relative="1" as="geometry" />
        </mxCell>
        <mxCell id="E3U97gk_HZ8-_eNEPnec-44" style="edgeStyle=orthogonalEdgeStyle;rounded=0;orthogonalLoop=1;jettySize=auto;html=1;entryX=0;entryY=0.25;entryDx=0;entryDy=0;" edge="1" parent="1" source="E3U97gk_HZ8-_eNEPnec-35" target="E3U97gk_HZ8-_eNEPnec-42">
          <mxGeometry relative="1" as="geometry">
            <Array as="points">
              <mxPoint x="305" y="298" />
            </Array>
          </mxGeometry>
        </mxCell>
        <mxCell id="E3U97gk_HZ8-_eNEPnec-46" value="Callback Page&lt;span style=&quot;border-color: var(--border-color);&quot;&gt;&lt;span style=&quot;white-space: pre;&quot;&gt;&lt;br&gt;&lt;/span&gt;&lt;/span&gt;" style="swimlane;fontStyle=0;childLayout=stackLayout;horizontal=1;startSize=40;horizontalStack=0;resizeParent=1;resizeParentMax=0;resizeLast=0;collapsible=1;marginBottom=0;whiteSpace=wrap;html=1;" vertex="1" parent="1">
          <mxGeometry x="-495" y="410" width="140" height="250" as="geometry" />
        </mxCell>
        <mxCell id="E3U97gk_HZ8-_eNEPnec-47" value="&lt;a style=&quot;box-sizing: border-box; background-color: transparent; display: inline; color: inherit; cursor: pointer; text-decoration: inherit;&quot; class=&quot;nostyle&quot;&gt;&lt;div&gt;&lt;/div&gt;&lt;/a&gt;&lt;a style=&quot;box-sizing: border-box; background-color: transparent; display: inline; color: inherit; cursor: pointer; text-decoration: inherit;&quot; class=&quot;nostyle&quot;&gt;&lt;div&gt;&lt;/div&gt;&lt;span style=&quot;box-sizing: border-box;&quot;&gt;/oauth2&lt;wbr style=&quot;box-sizing: border-box;&quot;&gt;/google&lt;wbr style=&quot;box-sizing: border-box;&quot;&gt;/authorized&lt;/span&gt;&lt;/a&gt;&lt;span style=&quot;box-sizing: border-box; align-items: center; color: rgb(59, 65, 81); display: flex; font-family: monospace; font-size: 16px; font-weight: 600; word-break: break-word; flex-shrink: 1; background-color: rgba(97, 175, 254, 0.1);&quot; data-path=&quot;/oauth2/google/authorized&quot; class=&quot;opblock-summary-path&quot;&gt;&lt;/span&gt;&lt;span style=&quot;box-sizing: border-box; align-items: center; color: rgb(59, 65, 81); display: flex; font-family: monospace; font-size: 16px; font-weight: 600; word-break: break-word; flex-shrink: 1; background-color: rgba(97, 175, 254, 0.1);&quot; data-path=&quot;/oauth2/google/login&quot; class=&quot;opblock-summary-path&quot;&gt;&lt;/span&gt;" style="text;strokeColor=none;fillColor=none;align=left;verticalAlign=middle;spacingLeft=4;spacingRight=4;overflow=hidden;points=[[0,0.5],[1,0.5]];portConstraint=eastwest;rotatable=0;whiteSpace=wrap;html=1;" vertex="1" parent="E3U97gk_HZ8-_eNEPnec-46">
          <mxGeometry y="40" width="140" height="210" as="geometry" />
        </mxCell>
        <mxCell id="E3U97gk_HZ8-_eNEPnec-49" value="Redirect URI: Authorization Code (URL)" style="text;html=1;align=center;verticalAlign=middle;whiteSpace=wrap;rounded=0;" vertex="1" parent="1">
          <mxGeometry x="-280" y="335" width="249" height="30" as="geometry" />
        </mxCell>
        <mxCell id="E3U97gk_HZ8-_eNEPnec-51" value="Exchange of Authorization Code for Token&lt;span style=&quot;border-color: var(--border-color);&quot;&gt;&lt;span style=&quot;&quot;&gt;&lt;br&gt;&lt;/span&gt;&lt;/span&gt;" style="swimlane;fontStyle=0;childLayout=stackLayout;horizontal=1;startSize=30;horizontalStack=0;resizeParent=1;resizeParentMax=0;resizeLast=0;collapsible=1;marginBottom=0;whiteSpace=wrap;html=1;" vertex="1" parent="1">
          <mxGeometry x="20" y="450" width="260" height="110" as="geometry" />
        </mxCell>
        <mxCell id="E3U97gk_HZ8-_eNEPnec-52" value="Token Endpoint:&lt;br&gt;-client_id&lt;br&gt;-client_secret&lt;br&gt;-redirect_uri&lt;br&gt;-grant_type" style="text;strokeColor=none;fillColor=none;align=left;verticalAlign=middle;spacingLeft=4;spacingRight=4;overflow=hidden;points=[[0,0.5],[1,0.5]];portConstraint=eastwest;rotatable=0;whiteSpace=wrap;html=1;" vertex="1" parent="E3U97gk_HZ8-_eNEPnec-51">
          <mxGeometry y="30" width="260" height="80" as="geometry" />
        </mxCell>
        <mxCell id="E3U97gk_HZ8-_eNEPnec-53" style="edgeStyle=orthogonalEdgeStyle;rounded=0;orthogonalLoop=1;jettySize=auto;html=1;exitX=-0.004;exitY=0.72;exitDx=0;exitDy=0;entryX=1.014;entryY=0.071;entryDx=0;entryDy=0;entryPerimeter=0;exitPerimeter=0;" edge="1" parent="1" source="E3U97gk_HZ8-_eNEPnec-35" target="E3U97gk_HZ8-_eNEPnec-47">
          <mxGeometry relative="1" as="geometry">
            <Array as="points">
              <mxPoint x="-280" y="362" />
              <mxPoint x="-280" y="465" />
            </Array>
          </mxGeometry>
        </mxCell>
        <mxCell id="E3U97gk_HZ8-_eNEPnec-54" style="edgeStyle=orthogonalEdgeStyle;rounded=0;orthogonalLoop=1;jettySize=auto;html=1;exitX=1.014;exitY=0.219;exitDx=0;exitDy=0;exitPerimeter=0;entryX=0;entryY=0.2;entryDx=0;entryDy=0;entryPerimeter=0;" edge="1" parent="1" source="E3U97gk_HZ8-_eNEPnec-47" target="E3U97gk_HZ8-_eNEPnec-52">
          <mxGeometry relative="1" as="geometry">
            <mxPoint x="-350" y="494" as="sourcePoint" />
            <mxPoint x="-200" y="610" as="targetPoint" />
          </mxGeometry>
        </mxCell>
        <mxCell id="E3U97gk_HZ8-_eNEPnec-55" value="Response: Access Token and Refresh Token" style="text;html=1;align=center;verticalAlign=middle;whiteSpace=wrap;rounded=0;" vertex="1" parent="1">
          <mxGeometry x="-360" y="530" width="400" height="30" as="geometry" />
        </mxCell>
        <mxCell id="E3U97gk_HZ8-_eNEPnec-56" style="edgeStyle=orthogonalEdgeStyle;rounded=0;orthogonalLoop=1;jettySize=auto;html=1;exitX=-0.004;exitY=0.638;exitDx=0;exitDy=0;entryX=1.029;entryY=0.386;entryDx=0;entryDy=0;entryPerimeter=0;exitPerimeter=0;" edge="1" parent="1" source="E3U97gk_HZ8-_eNEPnec-52" target="E3U97gk_HZ8-_eNEPnec-47">
          <mxGeometry relative="1" as="geometry" />
        </mxCell>
        <mxCell id="E3U97gk_HZ8-_eNEPnec-57" value="Token Validation (JWKS)&lt;span style=&quot;border-color: var(--border-color);&quot;&gt;&lt;span style=&quot;&quot;&gt;&lt;br&gt;&lt;/span&gt;&lt;/span&gt;" style="swimlane;fontStyle=0;childLayout=stackLayout;horizontal=1;startSize=30;horizontalStack=0;resizeParent=1;resizeParentMax=0;resizeLast=0;collapsible=1;marginBottom=0;whiteSpace=wrap;html=1;" vertex="1" parent="1">
          <mxGeometry x="20" y="580" width="260" height="60" as="geometry" />
        </mxCell>
        <mxCell id="E3U97gk_HZ8-_eNEPnec-58" value=".well-known/jwks.json&lt;br&gt;-Access Token" style="text;strokeColor=none;fillColor=none;align=left;verticalAlign=middle;spacingLeft=4;spacingRight=4;overflow=hidden;points=[[0,0.5],[1,0.5]];portConstraint=eastwest;rotatable=0;whiteSpace=wrap;html=1;" vertex="1" parent="E3U97gk_HZ8-_eNEPnec-57">
          <mxGeometry y="30" width="260" height="30" as="geometry" />
        </mxCell>
        <mxCell id="E3U97gk_HZ8-_eNEPnec-59" style="edgeStyle=orthogonalEdgeStyle;rounded=0;orthogonalLoop=1;jettySize=auto;html=1;entryX=0;entryY=0.25;entryDx=0;entryDy=0;exitX=0.993;exitY=0.071;exitDx=0;exitDy=0;exitPerimeter=0;" edge="1" parent="1" target="E3U97gk_HZ8-_eNEPnec-57">
          <mxGeometry relative="1" as="geometry">
            <mxPoint x="-356" y="595" as="sourcePoint" />
          </mxGeometry>
        </mxCell>
        <mxCell id="E3U97gk_HZ8-_eNEPnec-62" value="Use Token&lt;span style=&quot;border-color: var(--border-color);&quot;&gt;&lt;span style=&quot;white-space: pre;&quot;&gt;&lt;br&gt;&lt;/span&gt;&lt;/span&gt;" style="swimlane;fontStyle=0;childLayout=stackLayout;horizontal=1;startSize=40;horizontalStack=0;resizeParent=1;resizeParentMax=0;resizeLast=0;collapsible=1;marginBottom=0;whiteSpace=wrap;html=1;" vertex="1" parent="1">
          <mxGeometry x="-495" y="690" width="140" height="80" as="geometry" />
        </mxCell>
        <mxCell id="E3U97gk_HZ8-_eNEPnec-63" value="&lt;a style=&quot;box-sizing: border-box; background-color: transparent; display: inline; color: inherit; cursor: pointer; text-decoration: inherit;&quot; class=&quot;nostyle&quot;&gt;&lt;div&gt;&lt;/div&gt;&lt;/a&gt;&lt;a style=&quot;box-sizing: border-box; background-color: transparent; display: inline; color: inherit; cursor: pointer; text-decoration: inherit;&quot; class=&quot;nostyle&quot;&gt;&lt;div&gt;&lt;/div&gt;To create or login user&lt;br&gt;&lt;/a&gt;&lt;span style=&quot;box-sizing: border-box; align-items: center; color: rgb(59, 65, 81); display: flex; font-family: monospace; font-size: 16px; font-weight: 600; word-break: break-word; flex-shrink: 1; background-color: rgba(97, 175, 254, 0.1);&quot; data-path=&quot;/oauth2/google/authorized&quot; class=&quot;opblock-summary-path&quot;&gt;&lt;/span&gt;&lt;span style=&quot;box-sizing: border-box; align-items: center; color: rgb(59, 65, 81); display: flex; font-family: monospace; font-size: 16px; font-weight: 600; word-break: break-word; flex-shrink: 1; background-color: rgba(97, 175, 254, 0.1);&quot; data-path=&quot;/oauth2/google/login&quot; class=&quot;opblock-summary-path&quot;&gt;&lt;/span&gt;" style="text;strokeColor=none;fillColor=none;align=left;verticalAlign=middle;spacingLeft=4;spacingRight=4;overflow=hidden;points=[[0,0.5],[1,0.5]];portConstraint=eastwest;rotatable=0;whiteSpace=wrap;html=1;" vertex="1" parent="E3U97gk_HZ8-_eNEPnec-62">
          <mxGeometry y="40" width="140" height="40" as="geometry" />
        </mxCell>
        <mxCell id="E3U97gk_HZ8-_eNEPnec-65" style="edgeStyle=orthogonalEdgeStyle;rounded=0;orthogonalLoop=1;jettySize=auto;html=1;entryX=0.5;entryY=0;entryDx=0;entryDy=0;" edge="1" parent="1" target="E3U97gk_HZ8-_eNEPnec-62">
          <mxGeometry relative="1" as="geometry">
            <mxPoint x="-425" y="660" as="sourcePoint" />
            <Array as="points">
              <mxPoint x="-425" y="660" />
            </Array>
          </mxGeometry>
        </mxCell>
      </root>
    </mxGraphModel>
  </diagram>
</mxfile>
